<svg width="108" height="32" viewBox="0 0 108 32" fill="none" xmlns="http://www.w3.org/2000/svg">
<g clip-path="url(#clip0_1209_4730)">
<path d="M51.4725 3.034L47.1775 13.1642H44.1372L39.8589 3.034H42.8992L45.7181 9.92512L48.6328 3.034H51.4725Z" fill="white"/>
<path d="M62.7219 3.034V13.1638H59.9035V11.9994C59.51 12.4471 59.019 12.7986 58.4683 13.0268C57.9176 13.2549 57.3219 13.3536 56.727 13.3153C55.8192 13.3273 54.9234 13.106 54.1255 12.6728C53.3562 12.2486 52.7224 11.6156 52.2972 10.8467C51.8419 10.0039 51.6129 9.05735 51.6324 8.09956C51.6094 7.14081 51.8387 6.19284 52.2972 5.35054C52.7188 4.57902 53.3535 3.94513 54.1255 3.52453C54.9234 3.09128 55.8192 2.87003 56.727 2.88197C57.2923 2.85114 57.8574 2.94454 58.3827 3.15559C58.9079 3.36663 59.3806 3.69022 59.7674 4.10356V3.0281H62.7201L62.7219 3.034ZM59.0917 10.1416C59.5665 9.56701 59.8263 8.84493 59.8263 8.09956C59.8263 7.35418 59.5665 6.63211 59.0917 6.05754C58.595 5.56824 57.9257 5.29397 57.2285 5.29397C56.5312 5.29397 55.862 5.56824 55.3652 6.05754C54.8904 6.63211 54.6306 7.35418 54.6306 8.09956C54.6306 8.84493 54.8904 9.56701 55.3652 10.1416C55.862 10.6309 56.5312 10.9051 57.2285 10.9051C57.9257 10.9051 58.595 10.6309 59.0917 10.1416V10.1416Z" fill="white"/>
<path d="M81.5068 4.00734C82.2547 4.75185 82.6296 5.87117 82.6317 7.36532V13.1638H79.679V7.81865C79.7263 7.17873 79.5499 6.54225 79.1798 6.01805C79.0024 5.81828 78.7819 5.66138 78.535 5.5592C78.2881 5.45701 78.0212 5.41221 77.7545 5.42814C77.4486 5.41336 77.1432 5.46547 76.8595 5.58083C76.5758 5.69619 76.3206 5.87203 76.1118 6.0961C75.6691 6.65906 75.4525 7.36708 75.5047 8.08139V13.1638H72.5514V7.81865C72.5514 6.22769 71.9062 5.42632 70.6211 5.42632C70.3181 5.4122 70.0156 5.46469 69.7351 5.58009C69.4546 5.6955 69.2028 5.87102 68.9974 6.09428C68.5548 6.65729 68.3383 7.36528 68.3903 8.07958V13.1619H65.438V3.03399H68.2568V4.19702C68.639 3.76972 69.1132 3.43473 69.6436 3.21731C70.218 2.98551 70.833 2.87087 71.4524 2.88014C72.127 2.86927 72.795 3.01512 73.4036 3.30624C73.976 3.57926 74.4607 4.00676 74.8031 4.54053C75.221 4.00979 75.7632 3.59023 76.3818 3.31896C77.0398 3.02769 77.7524 2.88025 78.4719 2.8865C79.0274 2.8569 79.5832 2.94104 80.105 3.13378C80.6269 3.32651 81.1039 3.62377 81.5068 4.00734V4.00734Z" fill="white"/>
<path d="M87.3558 12.6501C86.5323 12.2294 85.8419 11.5883 85.3615 10.7982C84.8923 9.97872 84.6455 9.05086 84.6455 8.1066C84.6455 7.16234 84.8923 6.23447 85.3615 5.41499C85.842 4.62505 86.5324 3.98409 87.3558 3.56357C88.2476 3.10885 89.2373 2.8795 90.2382 2.89559C91.2373 2.878 92.2253 3.10745 93.1143 3.56357C93.9347 3.9861 94.6226 4.62673 95.1023 5.41499C95.5714 6.23447 95.8182 7.16234 95.8182 8.1066C95.8182 9.05086 95.5714 9.97872 95.1023 10.7982C94.6226 11.5866 93.9347 12.2274 93.1143 12.6501C92.2181 13.0897 91.2331 13.3183 90.2349 13.3183C89.2366 13.3183 88.2516 13.0897 87.3553 12.6501H87.3558ZM92.0983 10.1429C92.5692 9.5666 92.8265 8.8452 92.8265 8.10093C92.8265 7.35665 92.5692 6.63525 92.0983 6.05891C91.8595 5.80766 91.5704 5.60973 91.2497 5.47811C90.9291 5.34649 90.5842 5.28417 90.2378 5.2952C89.8896 5.28477 89.5431 5.34733 89.2205 5.47886C88.898 5.61039 88.6066 5.80797 88.365 6.05891C87.8902 6.63347 87.6304 7.35555 87.6304 8.10093C87.6304 8.8463 87.8902 9.56838 88.365 10.1429C88.6066 10.3939 88.898 10.5915 89.2205 10.723C89.5431 10.8545 89.8896 10.9171 90.2378 10.9067C90.5844 10.9175 90.9293 10.8548 91.2499 10.7229C91.5706 10.591 91.8597 10.3927 92.0983 10.1411V10.1429Z" fill="white"/>
<path d="M98.7263 13.0068C98.0448 12.8517 97.3929 12.5874 96.7959 12.224L97.7801 10.118C98.2919 10.4291 98.8449 10.6668 99.4228 10.8241C100.038 11.003 100.674 11.0946 101.315 11.0963C102.561 11.0963 103.187 10.7909 103.187 10.1738C103.183 10.0281 103.13 9.88795 103.038 9.77521C102.945 9.66247 102.818 9.58341 102.676 9.5503C102.165 9.38879 101.638 9.28231 101.104 9.23267C100.408 9.13703 99.7207 8.99252 99.0458 8.80021C98.5093 8.63962 98.0243 8.34125 97.639 7.93484C97.216 7.44601 97.0024 6.81022 97.0446 6.1651C97.0354 5.55072 97.231 4.95077 97.6004 4.45979C98.0206 3.9273 98.5838 3.52558 99.2241 3.30174C100.033 3.01034 100.889 2.87021 101.749 2.88834C102.471 2.88801 103.192 2.96699 103.897 3.12386C104.516 3.24876 105.113 3.46758 105.666 3.77276L104.682 5.86016C103.787 5.35824 102.775 5.09934 101.748 5.10915C101.261 5.08091 100.775 5.1704 100.329 5.37007C100.195 5.42772 100.079 5.52213 99.9953 5.6425C99.9117 5.76287 99.8637 5.90434 99.8567 6.05074C99.8561 6.2022 99.9062 6.34951 99.9988 6.46935C100.091 6.58918 100.221 6.67469 100.368 6.71236C100.897 6.88061 101.441 6.99985 101.992 7.06858C102.682 7.17618 103.365 7.32498 104.037 7.51419C104.565 7.67214 105.042 7.96875 105.417 8.3732C105.832 8.85123 106.044 9.47219 106.007 10.1039C106.014 10.7102 105.813 11.3005 105.439 11.7775C105.007 12.3075 104.433 12.7028 103.783 12.9165C102.953 13.2037 102.079 13.342 101.201 13.3249C100.367 13.318 99.5356 13.2112 98.7263 13.0068V13.0068Z" fill="white"/>
<path d="M47.4844 19.7367C48.1577 20.1069 48.7119 20.6609 49.0822 21.334C49.4603 22.0624 49.6576 22.871 49.6576 23.6917C49.6576 24.5123 49.4603 25.3209 49.0822 26.0493C48.7148 26.7204 48.1654 27.2741 47.4972 27.6466C46.7983 28.0293 46.0122 28.2244 45.2155 28.2129C44.5352 28.224 43.8622 28.0711 43.2534 27.7673C42.6677 27.4635 42.1719 27.0115 41.8154 26.4563V31.4066H40.6069V19.2403H41.7636V20.9964C42.1136 20.4245 42.6101 19.9566 43.2017 19.641C43.823 19.3185 44.5152 19.1566 45.2151 19.17C46.0076 19.1617 46.7889 19.3568 47.4844 19.7367V19.7367ZM46.8197 26.725C47.3291 26.4407 47.7444 26.0139 48.0149 25.497C48.3102 24.9411 48.4598 24.3195 48.4496 23.6901C48.4606 23.0626 48.3109 22.4428 48.0149 21.8895C47.739 21.3766 47.3249 20.9512 46.8197 20.6615C46.2981 20.3735 45.712 20.2225 45.1162 20.2225C44.5203 20.2225 43.9342 20.3735 43.4127 20.6615C42.9093 20.9515 42.4973 21.377 42.2238 21.8895C41.938 22.4479 41.7891 23.0662 41.7891 23.6935C41.7891 24.3208 41.938 24.9391 42.2238 25.4975C42.4973 26.01 42.9092 26.4355 43.4127 26.7254C43.9337 27.0171 44.5223 27.1664 45.1193 27.1583C45.714 27.161 46.2994 27.0112 46.8197 26.7232V26.725Z" fill="white"/>
<path d="M59.8459 19.2403V28.1344H58.691V26.3783C58.3477 26.9565 57.8525 27.4297 57.2593 27.7465C56.637 28.07 55.9435 28.2324 55.2422 28.2188C54.4469 28.2297 53.6625 28.0323 52.967 27.6462C52.2948 27.2717 51.7412 26.7161 51.3692 26.0425C50.9913 25.3175 50.7939 24.512 50.7939 23.6944C50.7939 22.8768 50.9913 22.0713 51.3692 21.3463C51.7378 20.6718 52.2924 20.1173 52.967 19.749C53.6642 19.368 54.4478 19.1731 55.2422 19.1831C55.9225 19.1719 56.5955 19.3246 57.2044 19.6283C57.7894 19.9306 58.2835 20.3831 58.6361 20.9393V19.2467H59.844L59.8459 19.2403ZM57.0324 26.7232C57.5386 26.4367 57.9514 26.0104 58.2213 25.4952C58.5069 24.9357 58.6559 24.3163 58.6559 23.688C58.6559 23.0598 58.5069 22.4405 58.2213 21.8809C57.9477 21.3684 57.5358 20.943 57.0324 20.6529C56.5176 20.3631 55.9356 20.2139 55.3448 20.2205C54.7478 20.2123 54.1592 20.3615 53.6381 20.6529C53.132 20.9394 52.7192 21.3658 52.4492 21.8809C52.1635 22.4404 52.0146 23.0598 52.0146 23.688C52.0146 24.3163 52.1635 24.9357 52.4492 25.4952C52.7228 26.0078 53.1347 26.4332 53.6381 26.7232C54.1587 27.0071 54.7421 27.1558 55.3351 27.1558C55.928 27.1558 56.5114 27.0071 57.0319 26.7232H57.0324Z" fill="white"/>
<path d="M65.2021 19.6288C65.8451 19.3045 66.5593 19.1469 67.279 19.1705V20.3349L66.9913 20.3158C66.5837 20.2932 66.176 20.3582 65.7956 20.5064C65.4152 20.6545 65.0709 20.8825 64.786 21.1748C64.2193 21.8485 63.9333 22.7143 63.9873 23.593V28.1363H62.7798V19.2422H63.9365V20.9856C64.1987 20.4071 64.6432 19.9305 65.2021 19.6288V19.6288Z" fill="white"/>
<path d="M70.277 27.6398C69.5903 27.2658 69.0231 26.7056 68.6407 26.0235C68.2507 25.3058 68.0464 24.502 68.0464 23.6852C68.0464 22.8683 68.2507 22.0645 68.6407 21.3468C69.0255 20.6698 69.5924 20.1142 70.277 19.7431C71.0057 19.353 71.8221 19.1558 72.6485 19.1705C73.3619 19.1573 74.0686 19.3097 74.7132 19.6156C75.3087 19.9052 75.808 20.3603 76.1513 20.9266L75.25 21.5374C74.9726 21.1141 74.5862 20.7734 74.1315 20.5513C73.6715 20.3283 73.166 20.2151 72.6548 20.2205C72.0477 20.2116 71.4487 20.3607 70.9164 20.653C70.4034 20.9367 69.9837 21.3633 69.7084 21.8809C69.4227 22.4427 69.2738 23.0641 69.2738 23.6945C69.2738 24.3248 69.4227 24.9461 69.7084 25.508C69.9841 26.0221 70.404 26.4444 70.9164 26.7232C71.4489 27.0148 72.0478 27.1638 72.6548 27.1557C73.1644 27.1593 73.6685 27.0509 74.1315 26.838C74.5871 26.6202 74.9741 26.2813 75.25 25.8583L76.1513 26.4691C75.8073 27.0371 75.3054 27.4926 74.7068 27.7801C74.0662 28.0841 73.3643 28.2366 72.6553 28.2257C71.8256 28.2361 71.007 28.0345 70.277 27.6398V27.6398Z" fill="white"/>
<path d="M83.2886 26.857C83.7498 26.6642 84.1593 26.3656 84.4839 25.9853L85.1613 26.7617C84.7629 27.2352 84.2567 27.6063 83.6852 27.8436C83.0647 28.0968 82.3995 28.2223 81.7294 28.2125C80.8771 28.2267 80.0349 28.0253 79.2812 27.6271C78.5859 27.2559 78.0098 26.6955 77.6195 26.0107C77.2166 25.2993 77.0114 24.493 77.0251 23.6756C77.013 22.8615 77.2088 22.0577 77.5941 21.3404C77.9564 20.6683 78.5015 20.1125 79.1664 19.7372C79.8608 19.3481 80.6459 19.1505 81.4417 19.1645C82.1927 19.1529 82.9335 19.3395 83.5894 19.7054C84.2237 20.0603 84.7512 20.5789 85.1168 21.207C85.503 21.8748 85.71 22.631 85.7177 23.4024L78.38 24.8214C78.5852 25.512 79.0206 26.1116 79.6139 26.5203C80.2416 26.9428 80.9857 27.1586 81.7421 27.1375C82.2716 27.1546 82.7988 27.059 83.2886 26.857ZM79.7731 20.6339C79.2831 20.9192 78.8825 21.3356 78.6164 21.8364C78.3325 22.3824 78.1896 22.9908 78.2008 23.6061C78.1979 23.7294 78.2043 23.8527 78.2198 23.9751L84.522 22.7598C84.4048 22.0456 84.0379 21.3963 83.4865 20.9275C82.9187 20.4446 82.1926 20.1887 81.4476 20.2087C80.8615 20.1944 80.2827 20.3415 79.7745 20.6339H79.7731Z" fill="white"/>
<path d="M88.4164 27.5441C88.1896 27.2895 88.0153 26.9927 87.9034 26.6706C87.7915 26.3486 87.7442 26.0076 87.7643 25.6672V15.5878H88.9722V25.5651C88.9404 26.0003 89.0727 26.4315 89.343 26.774C89.489 26.919 89.6644 27.0309 89.8574 27.1022C90.0503 27.1736 90.2564 27.2026 90.4615 27.1874C90.7415 27.1944 91.0198 27.1425 91.2784 27.0349L91.3614 28.0333C91.0119 28.1546 90.6446 28.2168 90.2746 28.2175C89.9352 28.2384 89.5953 28.1895 89.2756 28.0736C88.956 27.9578 88.6635 27.7776 88.4164 27.5441Z" fill="white"/>
<path d="M100.567 19.2403V28.1344H99.41V26.3783C99.066 26.9583 98.5683 27.4318 97.972 27.7465C97.3506 28.069 96.6585 28.2309 95.9586 28.2175C95.1632 28.2283 94.3788 28.0309 93.6833 27.6448C93.0111 27.2703 92.4575 26.7147 92.0855 26.0411C91.7076 25.3162 91.5103 24.5106 91.5103 23.6931C91.5103 22.8755 91.7076 22.07 92.0855 21.345C92.454 20.6704 93.0086 20.116 93.6833 19.7476C94.3801 19.3674 95.163 19.173 95.9567 19.1831C96.637 19.1719 97.31 19.3246 97.9189 19.6283C98.5045 19.9322 99.0003 20.3842 99.3569 20.9393V19.2467H100.565L100.567 19.2403ZM97.7532 26.7232C98.2594 26.4368 98.6722 26.0104 98.9421 25.4952C99.2278 24.9357 99.3768 24.3163 99.3768 23.688C99.3768 23.0598 99.2278 22.4404 98.9421 21.8809C98.6685 21.3684 98.2566 20.9429 97.7532 20.6529C97.2384 20.3631 96.6564 20.2139 96.0656 20.2205C95.4686 20.2123 94.88 20.3615 94.359 20.6529C93.8528 20.9394 93.4401 21.3658 93.1701 21.8809C92.8844 22.4405 92.7355 23.0598 92.7355 23.688C92.7355 24.3163 92.8844 24.9357 93.1701 25.4952C93.4437 26.0077 93.8556 26.4332 94.359 26.7232C94.8795 27.0071 95.463 27.1558 96.0559 27.1558C96.6488 27.1558 97.2323 27.0071 97.7528 26.7232H97.7532Z" fill="white"/>
<path d="M105.923 19.6288C106.566 19.3045 107.28 19.1469 108 19.1705V20.3349L107.713 20.3158C107.305 20.2932 106.897 20.3582 106.517 20.5064C106.136 20.6545 105.792 20.8825 105.507 21.1748C104.94 21.8485 104.654 22.7143 104.708 23.593V28.1363H103.501V19.2422H104.658V20.9856C104.92 20.4071 105.364 19.9305 105.923 19.6288V19.6288Z" fill="white"/>
<path d="M9.61291 3.51229V26.274C9.54257 26.3194 9.47677 26.3566 9.41461 26.4015C6.70462 28.1449 5.5924 28.8519 5.14497 29.1441L4.83822 29.3415L4.82551 29.3479L4.81916 29.3542C4.81281 29.3542 4.80646 29.3606 4.8001 29.3669C4.30817 29.6374 3.75441 29.7753 3.1931 29.7673C2.6318 29.7593 2.08221 29.6055 1.59823 29.3211C1.11424 29.0367 0.712467 28.6314 0.432289 28.1449C0.152111 27.6585 0.00314717 27.1076 0 26.5462V3.16243C0.0111593 2.62979 0.153892 2.10818 0.415484 1.64407C0.677077 1.17997 1.0494 0.787777 1.4993 0.502432C1.94919 0.217088 2.46268 0.0474513 2.99402 0.00864299C3.52536 -0.0301653 4.05804 0.0630555 4.54462 0.280001C4.73873 0.365732 4.92298 0.472241 5.09415 0.597653L5.10686 0.60401C5.15223 0.635774 5.19761 0.673892 5.24299 0.705656H5.24935L9.61291 3.51229Z" fill="#00E0D5"/>
<path d="M34.2215 14.8958C34.2214 15.4115 34.0971 15.9196 33.859 16.377C33.621 16.8345 33.2761 17.2278 32.8538 17.5237L32.6237 17.6702C19.1246 26.3375 15.6523 28.5637 14.7656 29.1428L14.4588 29.3401L14.4461 29.3465L14.4398 29.3528C14.4334 29.3528 14.4271 29.3592 14.4207 29.3656C13.9289 29.6361 13.3753 29.7741 12.8141 29.7662C12.2529 29.7583 11.7034 29.6048 11.2194 29.3205C10.7354 29.0363 10.3336 28.6312 10.0533 28.145C9.77305 27.6587 9.62394 27.1079 9.62061 26.5467V26.2744C10.9629 25.4154 12.6759 24.3145 14.8745 22.9019C17.0731 21.4893 19.7513 19.7708 23.0176 17.6716L23.2477 17.525C23.687 17.2172 24.0421 16.8041 24.2806 16.3236C24.5191 15.8432 24.6334 15.3106 24.613 14.7745C24.5927 14.2385 24.4383 13.7161 24.1641 13.2551C23.8898 12.7941 23.5044 12.4091 23.043 12.1355L9.61426 3.51363V3.16376C9.62531 2.63109 9.76797 2.10941 10.0295 1.64524C10.2911 1.18107 10.6634 0.788829 11.1134 0.503463C11.5633 0.218097 12.0768 0.0484699 12.6082 0.00971484C13.1396 -0.0290402 13.6723 0.0642847 14.1589 0.281349V0.281349C14.353 0.367081 14.5372 0.473576 14.7084 0.598988L14.7211 0.605345C14.7665 0.637109 14.8119 0.675226 14.8573 0.706991H14.8636L32.645 12.135C33.1244 12.4193 33.5217 12.8232 33.798 13.3071C34.0744 13.7911 34.2203 14.3385 34.2215 14.8958V14.8958Z" fill="#00E0D5"/>
<path d="M24.608 14.8945C24.608 15.4102 24.4837 15.9183 24.2456 16.3757C24.0075 16.8331 23.6627 17.2265 23.2403 17.5223L23.0103 17.6689C19.743 19.7686 17.0598 21.4866 14.8672 22.8992C12.6745 24.3118 10.9556 25.4127 9.61328 26.2717V3.51093L23.0357 12.1328C23.5148 12.4172 23.9116 12.8214 24.1873 13.3056C24.463 13.7898 24.608 14.3373 24.608 14.8945V14.8945Z" fill="#5619B4"/>
</g>
<defs>
<clipPath id="clip0_1209_4730">
<rect width="108" height="31.4067" fill="white"/>
</clipPath>
</defs>
</svg>
